<svg width="33" height="33" viewBox="0 0 33 33" fill="none" xmlns="http://www.w3.org/2000/svg">
<path d="M33.0008 16.5629C33.0008 7.41516 25.6128 0 16.5004 0C7.38794 0 0 7.41516 0 16.5629C0 24.6123 5.72223 31.3162 13.3038 32.8112V26.8619H13.3257V20.8961C13.3257 20.5813 13.3257 20.5813 13.0122 20.5813C11.7455 20.5813 10.4787 20.5774 9.212 20.5853C9.01839 20.5853 8.95724 20.5318 8.95803 20.3343C8.96587 18.8707 8.96587 17.4075 8.95803 15.9445C8.95803 15.7572 9.01368 15.7014 9.20024 15.7021C10.4803 15.71 11.7611 15.7061 13.0412 15.7061C13.3383 15.7061 13.3391 15.7061 13.3391 15.4126C13.3391 14.1977 13.3391 12.9836 13.3391 11.7687C13.3438 10.2911 13.7114 8.91724 14.5392 7.68348C15.3669 6.44971 16.5584 5.77461 17.9882 5.48033C19.501 5.16559 21.01 5.23011 22.5197 5.49843C22.7564 5.54092 22.9934 5.58026 23.2307 5.61645C23.3624 5.63691 23.4212 5.69514 23.4204 5.83913C23.4151 7.06817 23.4151 8.29695 23.4204 9.52547C23.4204 9.69149 23.3545 9.72454 23.2064 9.72847C22.4225 9.74578 21.6386 9.74735 20.8548 9.80715C19.8357 9.88033 19.1514 10.4429 18.8073 11.4021C18.5518 12.1102 18.5322 12.8624 18.5353 13.6107C18.5384 14.214 18.5408 14.8172 18.5424 15.4205C18.5424 15.7061 18.5463 15.71 18.8238 15.71H22.9634C23.2205 15.71 23.2268 15.7242 23.193 15.976C23.012 17.3262 22.8301 18.6764 22.6561 20.0282C22.5832 20.5916 22.5918 20.5931 22.0204 20.5931H18.8355C18.5424 20.5931 18.5416 20.5931 18.5416 20.8906V32.797C18.5432 32.8647 18.5409 32.9325 18.5345 33C26.6875 31.9936 33.0008 25.0215 33.0008 16.5629Z" fill="white"/>
</svg>
