<svg width="37" height="37" viewBox="0 0 37 37" fill="none" xmlns="http://www.w3.org/2000/svg">
<path d="M18.5062 9.09595C16.6357 9.09595 14.8071 9.65063 13.2518 10.6899C11.6965 11.7291 10.4842 13.2062 9.76839 14.9344C9.05256 16.6626 8.86526 18.5642 9.23019 20.3988C9.59512 22.2334 10.4959 23.9186 11.8186 25.2413C13.1413 26.564 14.8265 27.4648 16.6611 27.8297C18.4957 28.1947 20.3974 28.0074 22.1255 27.2915C23.8537 26.5757 25.3308 25.3635 26.3701 23.8081C27.4093 22.2528 27.964 20.4243 27.964 18.5537C27.9641 17.3117 27.7195 16.0818 27.2442 14.9343C26.769 13.7868 26.0723 12.7441 25.1941 11.8659C24.3158 10.9876 23.2732 10.291 22.1257 9.81569C20.9781 9.34043 19.7483 9.09586 18.5062 9.09595ZM18.4246 24.7303C17.1868 24.7305 15.9767 24.3637 14.9474 23.6763C13.9181 22.9888 13.1157 22.0115 12.6419 20.868C12.168 19.7245 12.0439 18.4661 12.2852 17.2521C12.5265 16.038 13.1224 14.9228 13.9976 14.0474C14.8727 13.1721 15.9878 12.5759 17.2018 12.3343C18.4158 12.0927 19.6742 12.2166 20.8178 12.6902C21.9614 13.1638 22.9389 13.966 23.6266 14.9951C24.3143 16.0243 24.6814 17.2343 24.6814 18.4721C24.6814 20.1316 24.0223 21.7232 22.8489 22.8968C21.6756 24.0704 20.0842 24.7299 18.4246 24.7303Z" fill="white"/>
<path d="M26.2024 1.99256e-07H10.7955C7.93237 1.99256e-07 5.18649 1.13738 3.16194 3.16194C1.13738 5.18649 1.99256e-07 7.93237 1.99256e-07 10.7955V26.2024C-0.000272205 27.6203 0.278761 29.0243 0.821165 30.3343C1.36357 31.6443 2.15872 32.8347 3.1612 33.8373C4.16369 34.84 5.35387 35.6354 6.66378 36.178C7.97369 36.7207 9.37766 37 10.7955 37H26.2024C27.6204 37.0003 29.0246 36.7212 30.3348 36.1786C31.6449 35.6361 32.8354 34.8408 33.8381 33.8381C34.8408 32.8354 35.6361 31.6449 36.1786 30.3348C36.7212 29.0246 37.0003 27.6204 37 26.2024V10.7955C37 9.37766 36.7207 7.97369 36.178 6.66378C35.6354 5.35387 34.84 4.16369 33.8373 3.1612C32.8347 2.15872 31.6443 1.36357 30.3343 0.821165C29.0243 0.278761 27.6203 -0.000272205 26.2024 1.99256e-07ZM33.5999 26.526C33.5999 27.4702 33.4139 28.4051 33.0526 29.2775C32.6913 30.1498 32.1616 30.9425 31.494 31.6101C30.8263 32.2778 30.0337 32.8074 29.1613 33.1687C28.289 33.5301 27.354 33.7161 26.4098 33.7161H10.5937C9.64943 33.7161 8.71446 33.5301 7.84212 33.1687C6.96977 32.8074 6.17714 32.2778 5.50948 31.6101C4.84182 30.9425 4.3122 30.1498 3.95086 29.2775C3.58952 28.4051 3.40355 27.4702 3.40355 26.526V10.5224C3.40465 8.61584 4.16253 6.78765 5.51069 5.43948C6.85886 4.09132 8.68705 3.33344 10.5937 3.33234H26.4098C28.3167 3.33234 30.1456 4.08986 31.494 5.43827C32.8424 6.78668 33.5999 8.61551 33.5999 10.5224V26.526Z" fill="white"/>
<path d="M28.3808 10.7722C29.5637 10.7722 30.5227 9.81324 30.5227 8.63035C30.5227 7.44745 29.5637 6.48853 28.3808 6.48853C27.1979 6.48853 26.239 7.44745 26.239 8.63035C26.239 9.81324 27.1979 10.7722 28.3808 10.7722Z" fill="white"/>
</svg>
