<svg width="210" height="190" viewBox="0 0 210 190" fill="none" xmlns="http://www.w3.org/2000/svg">
<path d="M96.933 1.66487C97.3119 0.949859 98.2772 1.12861 98.9564 1.07141C99.2138 4.28896 99.6714 7.5065 100.015 10.6955C100.158 11.5479 100.213 12.4129 100.179 13.2766C99.584 13.3196 98.9866 13.3196 98.3916 13.2766C98.2915 10.2378 97.7123 7.21335 97.5121 4.18886C96.8543 4.68936 96.5754 5.51162 96.0821 6.16943C95.4833 7.21777 94.8094 8.22141 94.0658 9.17248C93.0648 8.31447 92.1424 7.3492 91.2057 6.41254C90.8081 5.91492 90.3236 5.49341 89.7757 5.16842C90.0188 8.23582 90.4907 11.2532 90.7982 14.2777C90.2066 14.295 89.6146 14.2783 89.0249 14.2276C89.4253 14.3134 89.8258 14.3706 90.2476 14.435C89.8043 14.435 89.3681 14.435 88.9463 14.4707C88.6245 11.4105 88.2313 8.34307 87.9024 5.28282C87.735 4.28355 87.6561 3.27147 87.6664 2.25833C88.3814 2.30123 89.2823 1.93657 89.8115 2.58008C91.1342 3.9243 92.4355 5.28282 93.837 6.54124C94.8809 4.92532 95.9176 3.28079 96.9186 1.63627L96.933 1.66487Z" fill="#099D49" stroke="#099D49" stroke-width="0.09" stroke-miterlimit="10"/>
<path d="M107.365 1.0714C107.838 0.993804 108.319 0.979378 108.795 1.0285C110.054 4.3676 111.476 7.63519 112.799 10.96C113.181 11.7567 113.487 12.5873 113.714 13.4411C113.1 13.3624 112.099 13.7771 111.855 12.9978C111.398 11.9753 111.033 10.9171 110.533 9.93753C110.458 9.85717 110.371 9.78954 110.275 9.73733C108.609 9.67297 106.95 9.65867 105.27 9.67297C104.77 10.817 104.248 11.961 103.747 13.1193C103.125 13.1193 102.503 13.1193 101.888 13.1193C102.268 12.0373 102.729 10.9856 103.268 9.97328C104.627 7.01314 106.028 4.05299 107.372 1.0714H107.365Z" fill="#0A9D49" stroke="#0A9D49" stroke-width="0.09" stroke-miterlimit="10"/>
<path d="M117.625 1.68634C118.247 1.68634 119.055 1.58624 119.384 2.2655C121.41 5.66895 123.453 9.06048 125.512 12.4401C126.227 9.4156 126.556 6.29101 127.235 3.25221C127.75 3.33086 128.293 3.45242 128.815 3.56682C128.272 7.57087 127.385 11.5392 126.792 15.5432C126.355 15.5428 125.92 15.5021 125.491 15.4217C124.954 15.2215 124.811 14.5994 124.511 14.1776C123.131 11.8967 121.787 9.5729 120.364 7.31347C119.913 6.48862 119.399 5.69977 118.827 4.95394C118.383 7.3373 117.961 9.73974 117.561 12.1612C117.517 12.7188 117.404 13.2687 117.225 13.7986C116.76 14.0417 116.203 13.7986 115.723 13.72C115.695 13.3525 115.709 12.983 115.766 12.6188C116.367 8.97229 117.082 5.35434 117.625 1.68634Z" fill="#099D49" stroke="#099D49" stroke-width="0.09" stroke-miterlimit="10"/>
<path d="M107.923 3.80981C108.603 5.19955 109.19 6.63269 109.682 8.09988C108.502 8.14278 107.322 8.09988 106.142 8.09988C106.578 6.6341 107.365 5.29704 107.923 3.87417V3.80981Z" fill="#272623" stroke="#F9FCF9" stroke-width="0.09" stroke-miterlimit="10"/>
<path d="M72.6726 6.11227C73.1946 5.96927 73.7094 5.83342 74.2528 5.65466C75.3539 9.01521 76.2119 12.4187 77.2988 15.7792C79.1363 15.5218 80.8166 14.4779 82.6828 14.4421C82.7614 14.9212 82.883 15.3788 82.9831 15.8722C81.1169 16.4871 79.2364 16.9733 77.3774 17.5739C76.9143 17.7171 76.4322 17.7894 75.9474 17.7884C74.9464 14.3277 73.881 10.8671 72.8657 7.42074C72.7332 7.00637 72.6586 6.57567 72.644 6.14087L72.6726 6.11227Z" fill="#099D49" stroke="#099D49" stroke-width="0.09" stroke-miterlimit="10"/>
<path d="M133.863 9.57289C134.826 8.37491 135.85 7.227 136.931 6.13369C137.331 5.91204 137.789 6.19089 138.189 6.26954C138.747 10.4381 139.047 14.6423 139.533 18.8037C139.533 19.0825 139.569 19.3471 139.569 19.6045C138.96 19.5464 138.365 19.3843 137.81 19.1254C137.689 17.8241 137.588 16.5442 137.431 15.2429C135.851 14.6423 134.228 14.199 132.648 13.6413C131.661 14.5422 130.824 15.5575 129.924 16.5442C129.38 16.3583 128.844 16.1796 128.279 16.0437C128.421 15.7251 128.625 15.4382 128.88 15.2C130.603 13.3767 132.104 11.3747 133.885 9.57289H133.863Z" fill="#0A9D49" stroke="#0A9D49" stroke-width="0.09" stroke-miterlimit="10"/>
<path d="M133.806 12.2613C134.75 11.06 135.73 9.91602 136.752 8.79346C136.952 10.3164 137.109 11.8608 137.188 13.4196C136.036 13.1098 134.906 12.7228 133.806 12.2613Z" fill="#272623" stroke="#F9FCF8" stroke-width="0.09" stroke-miterlimit="10"/>
<path d="M63.7637 9.53705C64.1426 9.3154 64.7218 8.82204 65.1222 9.29395C68.0895 12.1969 71.2713 14.8996 74.2529 17.7811C74.3959 17.9456 74.5961 18.0814 74.5532 18.3245C74.0741 18.5819 73.5522 18.7464 73.0517 18.9609C72.208 18.203 71.3499 17.4594 70.5277 16.68C70.0129 16.1223 69.2478 16.68 68.6901 16.8588C67.6104 17.4022 66.3449 17.6596 65.3653 18.4032C65.2867 19.6473 65.444 20.8843 65.3224 22.1284C64.9649 22.586 64.2427 22.6646 63.7065 22.8434V11.1959C63.6752 10.6423 63.6943 10.0871 63.7637 9.53705Z" fill="#0A9C49" stroke="#0A9C49" stroke-width="0.09" stroke-miterlimit="10"/>
<path d="M143.773 12.676C144.432 12.0037 145.238 11.4931 146.128 11.1842C147.017 10.8753 147.966 10.7766 148.9 10.8957C151.26 11.1388 153.19 12.6617 154.684 14.4207C154.427 14.9426 154.184 15.4574 153.969 15.9794C153.19 15.3573 152.732 14.4207 151.889 13.8344C150.63 12.9477 149.086 12.1898 147.527 12.5688C146.776 12.7403 146.077 13.0896 145.488 13.5872C144.9 14.0849 144.439 14.7164 144.145 15.4288C143.763 16.3463 143.659 17.3556 143.845 18.3318C144.467 20.6698 146.869 22.057 149.172 22.1714C149.565 21.4564 149.93 20.6913 150.273 19.9334C149.545 19.6451 148.852 19.2757 148.206 18.8323C148.485 18.4319 148.55 17.4523 149.25 17.6883C150.366 18.1673 151.453 18.7322 152.554 19.2684C151.953 20.8701 151.124 22.393 150.366 23.9374C148.297 23.9622 146.271 23.3452 144.567 22.1714C143.709 21.5704 143.012 20.766 142.541 19.8302C142.069 18.8944 141.837 17.8564 141.864 16.8088C142.021 15.2529 142.705 13.7972 143.802 12.6832L143.773 12.676Z" fill="#099D49" stroke="#099D49" stroke-width="0.09" stroke-miterlimit="10"/>
<path d="M56.6208 12.9762C57.3725 12.4739 58.1668 12.0384 58.9946 11.6749C59.538 11.8608 59.6524 12.5758 59.7954 13.1049C58.6157 13.7699 57.4144 14.4063 56.2204 15.0855C57.7362 18.0886 59.538 20.9558 61.1039 23.9588C61.1755 24.1452 61.1755 24.3515 61.1039 24.538C60.6794 24.8609 60.1924 25.0922 59.6739 25.2172C58.0293 22.157 56.249 19.1539 54.6688 16.0722C53.346 16.4726 52.2449 17.3879 50.9865 17.9742C50.6214 17.5651 50.3591 17.0749 50.2214 16.5441C52.3665 15.3644 54.4686 14.1632 56.6136 13.0191L56.6208 12.9762Z" fill="#099C49" stroke="#099C49" stroke-width="0.09" stroke-miterlimit="10"/>
<path d="M65.3438 12.0182C66.6094 12.8977 67.6247 14.0774 68.8259 15.0212C67.725 15.5847 66.5824 16.0628 65.4082 16.4513C65.3081 15.0212 65.3224 13.5054 65.3438 12.0468V12.0182Z" fill="#272623" stroke="#F9FCFB" stroke-width="0.09" stroke-miterlimit="10"/>
<path d="M153.304 24.4094C155.142 21.5494 156.879 18.6893 158.867 15.9222C160.011 16.6373 161.148 17.2808 162.249 18.0673C163.05 18.6321 164.015 18.9896 164.652 19.769C164.377 20.1883 164.076 20.5895 163.751 20.9702C162.349 20.0169 160.919 19.116 159.461 18.2675C158.743 19.2165 158.093 20.2153 157.516 21.2562C158.839 22.2358 160.283 23.058 161.62 23.9947C161.341 24.4166 161.141 24.96 160.683 25.1959C159.698 24.6919 158.753 24.1109 157.859 23.4585C157.473 23.1367 157.01 22.9221 156.515 22.8364C155.936 23.5514 155.499 24.3737 154.978 25.1173C154.835 25.3604 154.513 25.8323 154.877 25.9967C156.236 26.8547 157.616 27.7199 158.939 28.6423C158.752 29.1234 158.484 29.5685 158.145 29.9579C156.143 28.7567 154.205 27.4554 152.26 26.1326C152.553 25.5219 152.903 24.9401 153.304 24.3951V24.4094Z" fill="#099D49" stroke="#099D49" stroke-width="0.09" stroke-miterlimit="10"/>
<path d="M45.8884 19.4472C46.3317 19.104 46.7893 18.7322 47.2326 18.4462C47.7745 19.0256 48.2694 19.6472 48.7127 20.3052C50.4144 22.6075 52.1519 24.8884 53.875 27.1693C54.1431 27.4807 54.3824 27.8158 54.5901 28.1703C54.1467 28.6351 53.5676 29.2929 52.8669 29.0355C50.2857 28.4349 47.6831 27.9487 45.1019 27.348C43.9436 27.1121 42.7995 26.8332 41.6412 26.6688C41.9987 27.7127 42.8424 28.4706 43.4573 29.3501C44.5585 30.9374 45.8455 32.3746 46.8822 33.9976C46.4997 34.4083 46.0469 34.7473 45.5452 34.9987C43.2428 31.8526 40.8404 28.7924 38.5381 25.7035C38.2163 25.1673 38.8384 24.7025 39.2531 24.5238C40.3128 24.5775 41.3621 24.7599 42.3777 25.0672C45.3593 25.6678 48.3194 26.4042 51.3225 26.9047C51.2653 26.7832 51.1437 26.5258 51.0651 26.3899C49.3204 24.0876 47.583 21.7996 45.8812 19.4829L45.8884 19.4472Z" fill="#099D49" stroke="#099D49" stroke-width="0.09" stroke-miterlimit="10"/>
<path d="M88.4888 22.3857C94.0085 21.2708 99.6325 20.7554 105.263 20.8485C118.02 20.8155 130.61 23.7531 142.036 29.4286C145.397 31.0606 148.639 32.9266 151.739 35.0128C154.861 37.0961 157.826 39.4045 160.612 41.9198C162.191 43.2716 163.699 44.7035 165.131 46.2099C168.034 49.1423 170.7 52.3006 173.103 55.6552C174.865 58.0318 176.47 60.5205 177.908 63.1056C181.292 68.9312 183.934 75.1572 185.773 81.6386C190.8 99.1752 190.027 117.866 183.571 134.928C183.228 135.751 182.97 136.587 182.627 137.409C182.491 137.71 182.305 138.124 181.912 138.046C177.772 138.089 173.647 138.046 169.499 138.046C169.8 136.387 170.4 134.785 170.786 133.148C171.968 128.611 172.821 123.994 173.339 119.334C173.561 116.989 173.84 114.651 173.84 112.284C173.882 108.945 173.882 105.62 173.84 102.274C173.477 96.3338 172.611 90.4353 171.251 84.6417C169.786 78.4767 167.707 72.4741 165.045 66.7235C162.37 60.8589 159.026 55.3236 155.078 50.2282C151.703 45.9006 147.885 41.937 143.688 38.402C134.235 30.5368 122.53 25.21 110.239 24.1017C107.577 23.8637 104.902 23.7968 102.231 23.9015C92.4527 24.3799 82.9464 27.2817 74.5676 32.3458C71.0021 34.4862 67.6353 36.9414 64.5074 39.6818C54.4181 48.774 46.7056 60.1955 42.0417 72.9513C38.5146 82.3536 36.4434 92.2393 35.8998 102.267C35.8426 106.407 35.7568 110.554 35.9785 114.672C36.459 121.967 37.7198 129.189 39.7394 136.215C39.9625 136.8 40.1114 137.41 40.1827 138.031C37.5229 138.031 34.8559 138.031 32.196 138.031C30.7915 138.161 29.3805 138.209 27.9703 138.174C27.8299 138.207 27.6827 138.19 27.5528 138.128C27.4229 138.066 27.3181 137.961 27.2553 137.831C22.8294 127.313 20.5776 116.007 20.6354 104.595C20.6931 93.1837 23.0593 81.9016 27.5914 71.4283C33.0447 58.9554 41.4287 47.9836 52.031 39.4453C62.6332 30.907 75.1402 25.0547 88.4888 22.3857Z" fill="#089F49" stroke="#089F49" stroke-width="0.09" stroke-miterlimit="10"/>
<path d="M164.895 24.9528C165.874 23.8874 166.754 22.7505 167.697 21.6494C168.176 22.1857 169.077 22.5646 168.977 23.3869C168.777 25.3103 168.877 27.2336 168.834 29.1499C170.822 28.8925 172.76 28.3491 174.719 28.0702C175.362 27.9487 175.82 28.535 176.242 28.9139C176.32 29.2929 175.941 29.5503 175.741 29.8506C173.339 32.6534 170.979 35.4777 168.591 38.3234C167.926 38.3234 167.59 37.6084 167.161 37.2223C168.942 35.0201 170.808 32.9323 172.61 30.7157C172.746 30.5293 172.872 30.336 172.988 30.1366C171.065 30.3511 169.206 30.9517 167.304 31.1519L167.04 30.8373C167.216 29.0005 167.264 27.1537 167.183 25.3103C166.983 25.4317 166.796 25.5731 166.625 25.7321C164.802 27.8343 163.05 30.0222 161.219 32.1172C160.597 32.1172 160.233 31.4022 159.854 31.0375C161.455 28.9497 163.279 27.0334 164.902 24.9528H164.895Z" fill="#0A9D49" stroke="#0A9D49" stroke-width="0.09" stroke-miterlimit="10"/>
<path d="M35.0989 28.0916C35.6566 27.4338 36.1571 28.492 36.5289 28.8066C35.4278 30.0221 34.2123 31.109 33.0682 32.2887C33.0682 32.3674 33.0253 32.4889 33.0253 32.5461C33.5902 33.3112 34.3481 33.8903 34.9702 34.5911C35.1275 34.7484 35.392 35.113 35.628 34.8485C36.7935 33.8117 37.8302 32.7034 38.9957 31.6238C39.3961 31.9884 39.775 32.3888 40.154 32.7892C38.9957 33.9475 37.7301 35.0129 36.5789 36.1927C37.3271 37.069 38.127 37.8999 38.9742 38.6809C39.2674 38.9383 39.5891 38.6023 39.8108 38.4021C40.8905 37.3367 41.9558 36.257 43.0355 35.2417C43.3715 35.5992 43.8935 35.8781 44.0151 36.3786C43.8693 36.629 43.6805 36.8517 43.4573 37.0364C42.0273 38.3806 40.7332 39.782 39.3103 41.1048C39.0672 41.3407 38.7669 41.0404 38.5953 40.8617C35.914 38.1018 33.2112 35.3418 30.4871 32.6176C31.9743 31.0518 33.6331 29.6718 35.1346 28.0916H35.0989Z" fill="#099D49" stroke="#099D49" stroke-width="0.09" stroke-miterlimit="10"/>
<path d="M176.542 34.6196C177.486 33.7759 178.444 32.9536 179.323 32.0527C180.925 33.7759 182.512 35.4776 184.093 37.2223C183.649 37.5369 183.292 38.3591 182.663 38.0803C181.64 36.9792 180.618 35.8566 179.602 34.7555C179.302 34.4766 178.959 34.8556 178.737 35.0558C178.033 35.6656 177.371 36.3225 176.757 37.0221C177.836 38.2233 178.98 39.403 180.038 40.64C179.684 41.0267 179.309 41.3942 178.916 41.7411C177.815 40.6615 176.835 39.4602 175.734 38.402C175.534 38.0803 175.198 38.3234 175.019 38.5236C174.304 39.2386 173.589 39.9536 172.824 40.6257C173.982 41.9056 175.141 43.2069 176.342 44.4653C176.04 44.9273 175.627 45.306 175.141 45.5664C173.603 43.8075 171.88 42.2273 170.4 40.4041C172.402 38.4378 174.54 36.6002 176.542 34.6196Z" fill="#0A9D49" stroke="#0A9D49" stroke-width="0.09" stroke-miterlimit="10"/>
<path d="M102.539 32.8751C103.367 32.6941 104.215 32.6196 105.063 32.6534C107.92 32.442 110.749 33.3323 112.971 35.1416C113.896 35.9319 114.737 36.8161 115.48 37.78C116.768 39.6202 117.512 41.786 117.625 44.0292C117.706 45.2549 117.624 46.4858 117.382 47.6901C116.981 49.3953 116.224 50.9968 115.162 52.3902C114.1 53.7835 112.757 54.9375 111.219 55.7768C108.718 57.0695 105.862 57.5065 103.089 57.021C101.016 56.6226 99.0787 55.7007 97.4618 54.3429C95.845 52.9851 94.6021 51.2365 93.8513 49.2631C93.1408 47.2564 92.9153 45.1101 93.1935 42.9996C93.5717 40.5725 94.6616 38.3121 96.3252 36.5047C97.9887 34.6974 100.151 33.4242 102.539 32.8465V32.8751Z" fill="#099F49" stroke="#099F49" stroke-width="0.09" stroke-miterlimit="10"/>
<path d="M26.4901 37.4226C26.3114 36.7076 27.0336 36.2571 27.3911 35.7566C29.15 37.0222 30.816 38.3807 32.4748 39.7392C33.9763 40.9404 35.5565 42.1059 36.9793 43.4072C36.6207 43.8715 36.2339 44.3132 35.821 44.73C33.5544 42.9853 31.3951 41.1549 29.1142 39.4246C28.9593 39.347 28.7992 39.2801 28.6352 39.2244C28.8497 41.1406 29.6362 42.9853 29.7363 44.9445C27.7128 45.0017 25.6679 44.9445 23.6301 45.0017C26.1112 46.8822 28.435 48.9628 30.9518 50.7647C30.7031 51.3317 30.3114 51.8245 29.8149 52.1947C27.4125 50.35 25.053 48.4266 22.6648 46.5103C21.9498 45.9097 21.1276 45.3878 20.4412 44.7228C20.4412 44.1079 21.0847 43.6074 21.5637 43.3429C23.6301 43.2642 25.6679 43.3429 27.7271 43.3429C27.3911 41.3551 26.8477 39.4174 26.4687 37.4369L26.4901 37.4226Z" fill="#099D49" stroke="#099D49" stroke-width="0.09" stroke-miterlimit="10"/>
<path d="M128.958 37.0006C132.134 36.2695 135.469 36.8083 138.253 38.5021C141.735 40.7616 144.238 44.7871 144.038 49.0271C144.274 54.6328 139.912 59.8595 134.507 61.0392C132.511 61.4942 130.433 61.446 128.46 60.8989C126.487 60.3518 124.681 59.3231 123.204 57.9051C121.727 56.4871 120.626 54.7244 119.999 52.7753C119.372 50.8263 119.24 48.752 119.613 46.739C120.071 44.3929 121.196 42.2287 122.854 40.5064C124.512 38.784 126.631 37.5767 128.958 37.0292V37.0006Z" fill="#099F49" stroke="#099F49" stroke-width="0.09" stroke-miterlimit="10"/>
<path d="M176.621 47.2325C179.91 44.7872 183.313 42.5277 186.574 40.0824C186.941 40.4555 187.222 40.9046 187.396 41.398C186.509 45.3377 185.43 49.2202 184.593 53.1671C185.4 52.7812 186.159 52.3012 186.853 51.7371C188.111 50.8004 189.398 49.878 190.699 48.9986C191.139 48.6313 191.619 48.3147 192.129 48.0548C192.473 48.1978 192.673 48.5767 192.916 48.8556C193.159 49.1344 193.173 49.399 192.916 49.5706C189.734 51.8729 186.481 54.118 183.328 56.4418C182.96 56.1018 182.656 55.7001 182.427 55.2549C182.461 54.5734 182.589 53.8999 182.806 53.2529C183.442 50.7932 183.985 48.3336 184.586 45.8668C184.819 45.0752 184.994 44.2674 185.108 43.4501C184.256 43.8805 183.447 44.3905 182.691 44.9731C181.261 46.017 179.831 46.9965 178.401 48.0548C178.122 48.2335 177.779 48.5124 177.436 48.3122C177.138 47.9712 176.87 47.6052 176.635 47.2182L176.621 47.2325Z" fill="#0B9D49" stroke="#0B9D49" stroke-width="0.09" stroke-miterlimit="10"/>
<path d="M23.866 45.0446C25.2531 44.9302 26.6331 44.9874 27.9916 44.9874C28.5576 44.9571 29.1249 45.0175 29.6719 45.1662C27.8128 45.2448 25.9538 45.2878 24.0876 45.3092C24.0223 45.2142 23.9481 45.1256 23.866 45.0446Z" fill="#CBE7D1" stroke="#CBE7D1" stroke-width="0.09" stroke-miterlimit="10"/>
<path d="M16.8088 50.1497C17.0136 49.6091 17.336 49.1206 17.7526 48.7197C21.2347 50.7218 24.7383 52.6451 28.2204 54.6686C27.9773 55.1691 27.82 55.8126 27.3195 56.0986C23.3583 56.9209 19.3542 57.6002 15.4074 58.5368C18.1316 60.0169 20.8129 61.6185 23.5371 63.0843C23.28 63.6163 22.9787 64.1258 22.6361 64.6073C19.0611 62.5838 15.5718 60.5603 12.0254 58.5583C12.247 58.0363 12.4472 57.3213 13.0693 57.1783C16.4084 56.5348 19.7118 55.877 23.0365 55.1977C23.6568 55.1243 24.2635 54.963 24.8384 54.7187C22.1785 53.1742 19.4329 51.7514 16.8088 50.1497Z" fill="#099D49" stroke="#099D49" stroke-width="0.09" stroke-miterlimit="10"/>
<path d="M193.559 53.0169C194.039 52.7953 194.818 52.0517 195.204 52.7738C196.741 55.6339 198.143 58.4939 199.687 61.2825C199.25 61.6485 198.725 61.8949 198.164 61.9975C197.621 60.7962 196.899 59.6737 196.42 58.4224C195.668 58.5979 194.955 58.9106 194.317 59.3448C192.172 60.5245 189.977 61.547 187.882 62.7482C187.541 62.9246 187.184 63.0706 186.817 63.1844C186.56 62.6839 186.016 62.1262 186.238 61.547C188.004 60.5245 189.813 59.6808 191.622 58.687C192.844 58.0864 194.01 57.3285 195.29 56.8494C195.257 56.2627 195.053 55.6985 194.703 55.2263C194.31 54.5113 193.924 53.7248 193.567 52.9669L193.559 53.0169Z" fill="#0B9C49" stroke="#0B9C49" stroke-width="0.09" stroke-miterlimit="10"/>
<path d="M88.1026 56.2558C89.209 56.0817 90.3311 56.029 91.4489 56.0985C93.2932 56.1697 95.0923 56.6901 96.6899 57.6143C98.1236 58.463 99.3868 59.5711 100.415 60.8819C102.192 63.2954 103.065 66.2561 102.882 69.2475C102.726 71.3265 102.047 73.3322 100.907 75.078C99.7674 76.8237 98.2045 78.2527 96.364 79.2318C94.5234 80.211 92.465 80.7085 90.3805 80.678C88.2959 80.6475 86.2529 80.09 84.4418 79.0575C82.3143 77.8368 80.5991 76.0096 79.5154 73.8093C78.2032 71.0873 77.9066 67.9861 78.6788 65.0647C79.2798 62.8678 80.4791 60.8809 82.1431 59.3255C83.807 57.7701 85.8702 56.7074 88.1026 56.2558Z" fill="#099F49" stroke="#099F49" stroke-width="0.09" stroke-miterlimit="10"/>
<path d="M105.742 64.3641C106.26 62.5801 107.296 60.9901 108.719 59.796C110.142 58.6019 111.888 57.8576 113.735 57.6575C115.581 57.4573 117.446 57.8105 119.092 58.6721C120.738 59.5337 122.09 60.8648 122.978 62.4966C123.866 64.1283 124.249 65.9871 124.078 67.8369C123.908 69.6867 123.192 71.4442 122.021 72.8862C120.849 74.3282 119.276 75.3897 117.501 75.936C115.725 76.4823 113.827 76.4887 112.048 75.9544C111.498 76.3517 111.016 76.8345 110.618 77.3844C108.602 79.8744 106.875 82.5849 105.47 85.4641C101.895 92.2853 99.7501 99.7643 98.2415 107.265C97.0184 113.409 96.2702 119.639 96.0035 125.898C95.9177 129.88 96.0035 133.842 96.0035 137.831C93.5653 137.831 91.1414 137.831 88.7175 137.831C88.7439 128.291 89.3 118.76 90.3835 109.281C91.5763 100.404 94.421 91.8284 98.7706 83.9983C101.099 79.7442 103.782 75.6948 106.793 71.8932C106.105 70.7798 105.657 69.5349 105.479 68.2382C105.3 66.9416 105.395 65.622 105.756 64.3641H105.742Z" fill="#099F49" stroke="#099F49" stroke-width="0.09" stroke-miterlimit="10"/>
<path d="M137.567 62.1333C140.451 61.6056 143.428 62.1119 145.975 63.5633C148.401 64.9795 150.277 67.1741 151.299 69.7908C152.32 72.4075 152.427 75.2927 151.603 77.9779C151.006 79.8487 149.975 81.5513 148.592 82.9459C147.21 84.3405 145.517 85.3873 143.652 86.0004C140.647 86.9846 137.378 86.7694 134.528 85.3997C133.079 84.7323 131.778 83.7837 130.699 82.609C129.62 81.4344 128.785 80.0571 128.243 78.5571C127.592 76.6609 127.365 74.6447 127.578 72.6511C127.982 69.5481 129.548 66.714 131.961 64.7217C133.587 63.4093 135.513 62.5222 137.567 62.1405V62.1333Z" fill="#099F49" stroke="#099F49" stroke-width="0.09" stroke-miterlimit="10"/>
<path d="M11.6753 64.6214C13.2297 64.1504 14.906 64.298 16.3543 65.0334C17.8025 65.7689 18.9107 67.0353 19.4474 68.5683C19.9448 70.3323 19.7873 72.2166 19.0041 73.8737C18.5162 74.9611 17.7269 75.8859 16.7296 76.5385C15.7323 77.1911 14.5688 77.5442 13.377 77.556C12.1348 77.5523 10.9201 77.1891 9.87976 76.5103C8.83937 75.8316 8.01769 74.8662 7.5139 73.7307C6.08388 70.27 8.03586 65.7225 11.6753 64.6214Z" fill="#0B9D49" stroke="#0B9D49" stroke-width="0.09" stroke-miterlimit="10"/>
<path d="M12.8405 66.2445C13.5915 66.1533 14.3533 66.2461 15.0604 66.5151C15.7674 66.7841 16.3983 67.2211 16.8987 67.7884C17.3992 68.3556 17.754 69.0362 17.9327 69.7712C18.1113 70.5063 18.1085 71.2738 17.9243 72.0075C17.7448 72.7292 17.4046 73.4011 16.9292 73.9731C16.4538 74.5451 15.8554 75.0023 15.1786 75.3108C14.4022 75.6902 13.5203 75.796 12.6761 75.6111C11.4856 75.395 10.4137 74.7549 9.65875 73.8093C8.93102 72.7309 8.65941 71.4084 8.90321 70.1304C9.14701 68.8525 9.88642 67.7228 10.9601 66.9881C11.545 66.6354 12.1896 66.3931 12.862 66.2731L12.8405 66.2445Z" fill="#272623" stroke="white" stroke-width="0.09" stroke-miterlimit="10"/>
<path d="M197.943 70.4131C198.19 70.0302 198.516 69.7045 198.9 69.4579C199.283 69.2113 199.715 69.0494 200.166 68.983C200.82 68.9151 201.479 69.0435 202.06 69.3516C202.641 69.6598 203.116 70.1338 203.427 70.7134C203.962 71.7389 204.158 72.9084 203.984 74.0525C203.763 74.8318 202.783 74.8104 202.147 75.032C202.204 74.0739 202.647 73.0729 202.247 72.1076C202.147 71.7142 201.931 71.3597 201.628 71.0896C201.325 70.8195 200.948 70.6462 200.545 70.5918C199.523 70.7706 199.165 71.8502 198.965 72.7368C198.643 74.2169 198.464 75.9186 197.263 77.0269C196.915 77.3314 196.506 77.5599 196.064 77.6977C195.622 77.8356 195.156 77.8799 194.696 77.8277C194.123 77.8081 193.567 77.6237 193.095 77.2966C192.623 76.9695 192.256 76.5134 192.037 75.983C191.526 74.755 191.402 73.401 191.679 72.1005C192.194 71.5356 193.038 71.4784 193.76 71.2782C193.36 72.0866 193.161 72.9793 193.181 73.8808C193.148 74.3543 193.258 74.8267 193.496 75.2371C193.734 75.6475 194.09 75.977 194.518 76.1832C195.562 76.4406 196.341 75.4682 196.663 74.6245C197.142 73.2588 197.142 71.7001 197.921 70.4417L197.943 70.4131Z" fill="#0A9D49" stroke="#0A9D49" stroke-width="0.09" stroke-miterlimit="10"/>
<path d="M203.226 78.936C203.941 78.1781 204.427 77.1985 205.285 76.5979C205.514 77.2421 205.644 77.917 205.672 78.5999C205.478 78.9242 205.255 79.2305 205.007 79.5151C204.106 80.5376 203.226 81.5601 202.404 82.6397C203.97 83.3547 205.571 84.0698 207.087 84.8992C207.509 85.4426 207.452 86.2434 207.652 86.8869C206.351 86.6009 205.25 85.843 204.077 85.321C203.072 84.805 202.035 84.3513 200.974 83.9625C198.872 84.32 196.827 85.0422 194.71 85.2209C194.632 84.6847 194.489 84.1198 194.389 83.5836C196.448 82.9829 198.571 82.6969 200.616 82.082C201.632 81.1597 202.332 79.937 203.255 78.936H203.226Z" fill="#099D49" stroke="#099D49" stroke-width="0.09" stroke-miterlimit="10"/>
<path d="M117.354 78.7787C120.362 78.2229 123.469 78.8068 126.071 80.4167C128.672 82.0266 130.581 84.5473 131.425 87.4876C131.816 88.9818 131.951 90.5314 131.826 92.0708C131.714 93.465 131.348 94.827 130.746 96.0891C129.763 98.2433 128.172 100.063 126.169 101.326C124.166 102.589 121.838 103.239 119.47 103.196C117.636 103.213 115.823 102.808 114.171 102.01C112.519 101.213 111.074 100.046 109.946 98.5988C108.554 96.9095 107.665 94.8631 107.379 92.6928C107.281 91.5032 107.281 90.3074 107.379 89.1178C107.744 86.4674 109.005 84.0221 110.954 82.1893C112.678 80.4002 114.936 79.2206 117.389 78.8288L117.354 78.7787Z" fill="#099F49" stroke="#099F49" stroke-width="0.09" stroke-miterlimit="10"/>
<path d="M10.3166 82.0176C12.2972 80.5876 14.7211 80.18 16.9019 79.2362C16.8679 79.9299 16.6978 80.6101 16.4013 81.2382C14.6639 82.1535 12.5188 82.3608 10.9601 83.6407C10.7072 83.8668 10.506 84.1448 10.3703 84.4558C10.2345 84.7667 10.1675 85.1033 10.1736 85.4425C11.8181 85.8429 13.477 86.2433 15.1787 86.5436C15.1662 87.1101 15.0918 87.6735 14.957 88.2239C13.2982 88.2239 11.7109 87.5661 10.095 87.2658C7.72827 86.801 5.42594 86.1432 3.06641 85.7214C3.15713 84.643 3.35839 83.5768 3.66701 82.5396C4.02452 81.4384 4.51073 80.1586 5.69049 79.6795C6.14214 79.4555 6.63948 79.3391 7.14361 79.3393C7.64775 79.3395 8.145 79.4563 8.59647 79.6806C9.04794 79.905 9.44137 80.2308 9.74598 80.6325C10.0506 81.0342 10.2581 81.5009 10.3524 81.9961L10.3166 82.0176Z" fill="#099D49" stroke="#099D49" stroke-width="0.09" stroke-miterlimit="10"/>
<path d="M6.26948 81.3813C6.54851 81.2536 6.8551 81.1977 7.16127 81.2189C7.46744 81.24 7.76343 81.3375 8.02223 81.5025C8.28103 81.6674 8.4944 81.8946 8.64285 82.1632C8.79131 82.4318 8.87013 82.7333 8.87212 83.0402C8.87212 83.698 8.67191 84.3415 8.63616 84.985C7.33485 84.985 6.13363 84.4201 4.85376 84.27C5.06826 83.2475 5.15406 81.8675 6.28378 81.4099L6.26948 81.3813Z" fill="#272623" stroke="#FBFDFC" stroke-width="0.09" stroke-miterlimit="10"/>
<path d="M40.4044 88.989C42.4262 88.4057 44.496 88.0037 46.5892 87.7878C48.9916 87.6663 51.3941 87.6877 53.7965 87.7449C61.852 88.5172 69.4656 91.7841 75.5757 97.0901C79.5458 100.442 82.9815 104.379 85.7646 108.766C86.2519 109.383 86.6736 110.05 87.023 110.754C84.2689 111.388 81.4604 111.757 78.636 111.855C76.6339 112.112 74.6319 111.776 72.6084 111.755C71.8987 111.719 71.1944 111.611 70.5063 111.433C62.3781 110.341 54.8249 106.637 48.9845 100.88C46.14 98.0379 43.683 94.8332 41.6771 91.3486C41.184 90.6 40.7558 89.8106 40.3972 88.989H40.4044Z" fill="#099F49" stroke="#099F49" stroke-width="0.09" stroke-miterlimit="10"/>
<path d="M201.925 91.6705C202.468 90.3262 203.569 88.9463 205.15 88.9677C206.794 88.8247 208.21 90.3048 208.453 91.8707C208.658 92.9782 208.473 94.1225 207.931 95.1097C207.349 95.1929 206.76 95.2264 206.172 95.2098C206.605 94.4309 206.85 93.5617 206.887 92.6715C206.928 92.2529 206.838 91.8319 206.631 91.466C206.424 91.1 206.109 90.8069 205.729 90.6265C205.383 90.5631 205.026 90.6147 204.712 90.7735C204.398 90.9324 204.145 91.1896 203.991 91.506C203.276 92.65 203.026 94.03 202.204 95.1311C201.87 95.6278 201.412 96.0281 200.875 96.2916C200.338 96.5552 199.741 96.6728 199.144 96.6326C198.379 96.6125 197.647 96.3184 197.082 95.8039C196.516 95.2894 196.154 94.5888 196.062 93.8298C195.82 92.5448 196.054 91.2155 196.72 90.0903C197.398 89.946 198.093 89.8907 198.786 89.9258C198.389 90.3451 198.08 90.8393 197.876 91.3794C197.672 91.9196 197.578 92.4949 197.599 93.0719C197.58 93.3294 197.617 93.588 197.709 93.8293C197.801 94.0706 197.945 94.2888 198.13 94.4683C198.316 94.6478 198.539 94.7842 198.783 94.8679C199.028 94.9515 199.287 94.9804 199.544 94.9523C200.974 94.4518 201.324 92.8717 201.925 91.6705Z" fill="#0A9D49" stroke="#0A9D49" stroke-width="0.09" stroke-miterlimit="10"/>
<path d="M2.32987 89.3036C3.25487 89.2877 4.17922 89.3619 5.08981 89.5253C8.23586 89.9471 11.3605 90.4906 14.4993 90.8481C14.5031 91.4511 14.4163 92.0512 14.2419 92.6284C10.2379 92.1494 6.25528 91.4487 2.25122 90.9482C2.25122 90.4048 2.25122 89.847 2.32987 89.3036Z" fill="#099D49" stroke="#099D49" stroke-width="0.09" stroke-miterlimit="10"/>
<path d="M1.75079 93.0717C2.4547 93.2635 3.1285 93.5523 3.75282 93.9297C6.13381 95.1095 8.51479 96.3107 10.9029 97.5048C11.8301 97.8981 12.7326 98.347 13.6057 98.849C13.8059 98.9491 13.7058 99.3066 13.5056 99.371C13.0428 99.5848 12.5648 99.7641 12.0755 99.9072C8.37179 101.108 4.74669 102.631 1.02148 103.775C1.02148 103.189 1.06439 102.589 1.08584 102.009C4.02453 101.008 6.94892 99.9716 9.83041 98.8848C7.14912 97.4547 4.32483 96.2035 1.66499 94.702C1.66499 94.1442 1.66499 93.6008 1.7651 93.0646L1.75079 93.0717Z" fill="#099D49" stroke="#099D49" stroke-width="0.09" stroke-miterlimit="10"/>
<path d="M207.452 97.5906C207.931 97.5906 208.432 97.5548 208.932 97.5906C209.024 97.8768 209.065 98.1769 209.054 98.4772C209.054 100.079 209.054 101.68 209.089 103.275C209.24 104.779 209.268 106.292 209.175 107.801H207.631C207.709 106.371 207.431 105.041 207.488 103.64C205.974 103.541 204.455 103.574 202.948 103.74C200.924 103.74 198.886 103.797 196.863 103.783C196.81 103.175 196.83 102.563 196.92 101.959C200.424 102.081 203.949 101.759 207.474 101.781C207.474 100.393 207.409 98.992 207.474 97.5906H207.452Z" fill="#0A9D49" stroke="#0A9D49" stroke-width="0.09" stroke-miterlimit="10"/>
<path d="M5.36871 106.643C8.01425 106.521 10.6383 106.121 13.2767 106.164C13.2767 106.8 13.5627 107.594 12.9621 108.08C10.4381 110.547 7.95705 113.085 5.46881 115.587C5.23861 115.812 5.04338 116.07 4.88966 116.352C7.95705 116.252 10.9958 115.752 14.0418 115.788C14.0418 116.31 14.0418 116.832 14.099 117.354C10.7384 117.732 7.35644 117.79 3.96729 118.169C3.25228 118.212 2.57302 118.212 1.87231 118.212C1.90806 117.632 1.62921 116.91 2.15117 116.474C4.78955 113.907 7.29209 111.204 9.91618 108.609C10.0786 108.417 10.22 108.209 10.338 107.987C7.23489 108.166 4.15319 108.509 1.0429 108.609C1.0429 108.066 1 107.508 1 106.95C2.43002 106.728 3.92439 106.85 5.36156 106.628L5.36871 106.643Z" fill="#0A9D49" stroke="#0A9D49" stroke-width="0.09" stroke-miterlimit="10"/>
<path d="M196.841 109.567C200.867 109.724 204.849 110.368 208.875 110.425C208.891 112.776 208.736 115.125 208.41 117.454C207.888 117.411 207.388 117.389 206.873 117.353C206.987 115.63 207.13 113.907 207.273 112.184C206.051 112.105 204.849 111.948 203.627 111.927C203.405 113.55 203.405 115.187 203.248 116.81C202.704 116.81 202.168 116.81 201.646 116.767C201.646 115.087 201.968 113.407 201.889 111.762C200.679 111.624 199.461 111.564 198.243 111.583C198.164 113.321 197.985 115.044 197.864 116.767C197.309 116.837 196.746 116.776 196.219 116.588C196.498 114.265 196.584 111.919 196.841 109.603V109.567Z" fill="#0A9D49" stroke="#0A9D49" stroke-width="0.09" stroke-miterlimit="10"/>
<path d="M129.28 112.899C132.517 112.273 135.788 111.834 139.076 111.583C142.479 111.505 145.883 111.483 149.286 111.583C154.914 111.956 160.488 112.915 165.917 114.443C165.581 115.101 164.88 115.437 164.337 115.923C160.722 118.907 156.773 121.46 152.568 123.531C146.408 126.506 139.823 128.503 133.048 129.451C128.884 129.996 124.683 130.199 120.485 130.059C115.613 130.043 110.756 129.521 105.992 128.501C104.848 128.19 103.685 127.951 102.51 127.786C102.615 127.738 102.722 127.698 102.832 127.664C102.036 127.653 101.261 127.404 100.608 126.949C102.11 125.769 103.554 124.468 105.134 123.374C106.836 122.251 108.48 121.036 110.282 120.071C116.183 116.664 122.6 114.242 129.28 112.899Z" fill="#099F49" stroke="#099F49" stroke-width="0.09" stroke-miterlimit="10"/>
<path d="M195.762 120.435C195.768 119.853 195.877 119.277 196.084 118.734C198.801 119.134 201.489 119.856 204.192 120.392C205.429 120.635 206.673 120.893 207.888 121.157C207.901 121.594 207.862 122.031 207.774 122.459C207.674 122.895 207.231 123.038 206.887 123.238C205.286 124.06 203.67 124.861 202.082 125.719C203.026 127.321 204.428 128.622 205.529 130.102C206.151 130.724 205.851 131.704 205.572 132.405C201.668 131.425 197.707 130.746 193.781 129.823C193.748 129.195 193.871 128.569 194.139 128C196.162 128.543 198.2 128.901 200.245 129.359C201.195 129.617 202.167 129.785 203.148 129.859C202.104 128.522 201.003 127.256 199.902 125.962C199.686 125.705 199.574 125.376 199.587 125.04C200.745 124.518 201.868 123.917 203.005 123.36C203.608 123.131 204.154 122.775 204.606 122.316C201.668 121.672 198.722 121.057 195.762 120.435Z" fill="#0A9E49" stroke="#0A9E49" stroke-width="0.09" stroke-miterlimit="10"/>
<path d="M13.0192 119.613C13.4983 119.513 13.963 119.434 14.4492 119.355C14.7495 120.535 14.9068 121.772 15.1643 122.973C15.4629 124.087 15.652 125.227 15.7291 126.377C12.7833 126.92 9.84458 127.542 6.92018 128.1C5.9115 128.377 4.88021 128.563 3.83849 128.658C3.47383 126.877 3.12348 125.083 2.75882 123.295C2.65011 122.81 2.60207 122.312 2.61582 121.815C3.08271 121.794 3.54565 121.719 3.99579 121.593C4.51775 123.238 4.6393 124.975 5.09691 126.599C6.25522 126.456 7.37779 126.119 8.52181 125.955C8.37619 124.311 8.08183 122.684 7.64234 121.093C8.14987 120.862 8.70049 120.74 9.25827 120.735C9.68012 122.337 9.82313 123.996 10.3236 125.598C11.5331 125.391 12.7274 125.105 13.8987 124.739C13.4426 123.053 13.134 121.331 12.9763 119.591L13.0192 119.613Z" fill="#0A9D49" stroke="#0A9D49" stroke-width="0.09" stroke-miterlimit="10"/>
<path d="M64.4857 143.351C66.1513 143.068 67.8633 143.277 69.4121 143.952C72.2721 145.275 73.9095 148.356 74.553 151.324C75.3109 154.327 75.2323 157.466 75.0964 160.533C74.696 163.793 73.9095 167.354 71.3498 169.656C69.9197 171.237 67.6889 171.801 65.6297 171.68C64.6093 171.711 63.5938 171.527 62.6491 171.14C61.7043 170.753 60.8514 170.172 60.1456 169.435C58.449 167.512 57.3572 165.132 57.0067 162.592C56.5221 159.835 56.433 157.023 56.7421 154.241C57.1282 151.123 57.8861 147.806 60.2099 145.496C61.3585 144.32 62.8697 143.564 64.5 143.351H64.4857Z" fill="#099F49" stroke="#099F49" stroke-width="0.09" stroke-miterlimit="10"/>
<path d="M39.9037 146.998C40.9396 145.42 42.464 144.224 44.2438 143.594C45.2132 143.353 46.2153 143.271 47.2111 143.351C48.6302 143.418 50.0061 143.86 51.1974 144.635C52.3886 145.409 53.3523 146.486 53.9894 147.756C54.2836 148.231 54.4692 148.766 54.5328 149.322C52.9767 150.175 51.3777 150.949 49.7422 151.638C49.4131 150.544 48.7224 149.594 47.7831 148.943C47.3562 148.656 46.8405 148.532 46.33 148.594C45.8194 148.656 45.3481 148.899 45.0017 149.279C44.2867 149.879 44.444 150.837 44.5584 151.638C45.0232 152.604 46.0814 153.068 46.9608 153.562C49.5063 154.806 52.4879 155.707 54.1109 158.245C55.3336 159.947 55.2907 162.149 55.1548 164.129C54.8946 166.083 53.9796 167.89 52.5594 169.256C51.7681 170.069 50.8136 170.706 49.7587 171.123C48.7038 171.541 47.5724 171.731 46.4389 171.68C45.3546 171.718 44.2737 171.538 43.2595 171.153C42.2453 170.767 41.3184 170.183 40.5329 169.435C39.222 168.139 38.2412 166.548 37.6729 164.794C38.8741 164.151 40.1539 163.693 41.3766 163.071C41.8352 162.815 42.3368 162.646 42.8567 162.571C43.2007 163.889 43.9697 165.058 45.0446 165.896C45.7004 166.249 46.4504 166.389 47.1896 166.296C47.6808 166.277 48.1517 166.095 48.5284 165.78C48.905 165.464 49.166 165.032 49.2703 164.551C49.3605 164.029 49.3158 163.492 49.1407 162.992C48.9655 162.491 48.6656 162.044 48.2693 161.691C46.4675 160.261 44.1222 159.768 42.206 158.488C40.7077 157.529 39.6097 156.058 39.1172 154.348C38.4379 151.946 38.4594 149.157 39.8822 147.019L39.9037 146.998Z" fill="#099F49" stroke="#099F49" stroke-width="0.09" stroke-miterlimit="10"/>
<path d="M130.56 143.644C132.404 143.136 134.368 143.293 136.108 144.088C137.521 144.751 138.655 145.89 139.312 147.305C140.57 149.708 140.949 152.432 141.171 155.099C141.35 157.906 141.17 160.725 140.634 163.486C140.069 165.888 139.154 168.391 137.188 170.007C135.921 171.049 134.324 171.605 132.683 171.573C131.168 171.57 129.682 171.147 128.393 170.35C126.745 169.049 125.598 167.217 125.147 165.166C124.441 161.928 124.179 158.608 124.368 155.299C124.568 152.553 124.911 149.751 126.234 147.291C126.648 146.413 127.245 145.633 127.985 145.004C128.725 144.376 129.591 143.912 130.524 143.644H130.56Z" fill="#099F49" stroke="#099F49" stroke-width="0.09" stroke-miterlimit="10"/>
<path d="M149.379 143.644C150.459 143.342 151.591 143.271 152.7 143.437C153.809 143.604 154.87 144.003 155.814 144.61C156.813 145.316 157.623 146.256 158.174 147.348C159.411 149.808 159.754 152.596 159.954 155.299C160.164 158.375 159.908 161.466 159.196 164.466C158.786 166.07 158.056 167.575 157.051 168.891C156.458 169.666 155.702 170.301 154.838 170.753C153.973 171.205 153.02 171.463 152.046 171.508C150.152 171.69 148.258 171.154 146.741 170.007C144.882 168.427 144.016 165.989 143.58 163.643C143.272 161.81 143.124 159.954 143.137 158.095C143.094 154.856 143.28 151.531 144.438 148.471C144.909 147.245 145.624 146.129 146.54 145.189C147.346 144.48 148.294 143.953 149.322 143.644H149.379Z" fill="#099F49" stroke="#099F49" stroke-width="0.09" stroke-miterlimit="10"/>
<path d="M29.4717 143.795C31.4952 143.795 33.5186 143.795 35.5421 143.795C35.5421 152.925 35.5421 162.049 35.5421 171.158C33.5186 171.201 31.4952 171.28 29.4717 171.158C29.4717 162.049 29.4717 152.925 29.4717 143.816V143.795Z" fill="#099E49" stroke="#099E49" stroke-width="0.09" stroke-miterlimit="10"/>
<path d="M95.174 143.852C96.2894 143.716 97.4549 143.852 98.5917 143.795V163.729C98.5465 164.653 98.58 165.578 98.6918 166.496C99.8513 166.608 101.017 166.642 102.181 166.596C102.181 168.119 102.181 169.635 102.181 171.137C99.5355 171.28 96.89 171.137 94.2516 171.201C92.6071 171.158 90.9697 171.28 89.3252 171.115C89.3252 169.621 89.3252 168.119 89.3252 166.596C90.3048 166.596 91.27 166.596 92.2496 166.596C92.507 166.539 93.0289 166.553 92.9646 166.153C92.9646 161.034 92.9646 155.885 92.9646 150.745C91.7276 150.859 90.5836 151.359 89.3895 151.545C89.3895 150.001 89.3896 148.464 89.4325 146.919C90.9615 146.503 92.4231 145.87 93.7726 145.039C94.287 144.699 94.7661 144.309 95.2026 143.873L95.174 143.852Z" fill="#099F49" stroke="#099F49" stroke-width="0.09" stroke-miterlimit="10"/>
<path d="M113.55 144.359C113.686 144.159 113.786 143.78 114.107 143.823C115.974 143.78 117.833 143.823 119.692 143.823C119.813 149.229 119.692 154.656 119.756 160.075C120.693 160.075 121.615 160.075 122.559 160.075C122.559 161.505 122.559 162.935 122.559 164.365L122.437 164.487C121.536 164.551 120.635 164.487 119.735 164.551C119.692 166.754 119.792 168.97 119.692 171.194C118.011 171.294 116.331 171.194 114.687 171.237C114.386 171.194 113.972 171.337 113.8 170.972C113.8 168.827 113.8 166.682 113.8 164.487C110.997 164.53 108.209 164.487 105.406 164.487C105.37 163.057 105.37 161.627 105.406 160.197C105.719 159.379 106.101 158.59 106.55 157.837C107.894 155.235 109.331 152.711 110.611 150.108C111.555 148.17 112.634 146.326 113.578 144.388L113.55 144.359Z" fill="#089F49" stroke="#089F49" stroke-width="0.09" stroke-miterlimit="10"/>
<path d="M170.436 143.852C171.559 143.716 172.703 143.852 173.839 143.795V161.52C173.882 163.186 173.782 164.823 173.904 166.489C175.092 166.603 176.286 166.636 177.479 166.589V171.129C175.377 171.272 173.253 171.129 171.158 171.194C169.063 171.258 166.789 171.251 164.63 171.151V166.596C165.731 166.596 166.832 166.654 167.933 166.553L168.212 166.332C168.212 161.134 168.255 155.928 168.212 150.723C166.968 150.823 165.853 151.381 164.637 151.524C164.637 150.18 164.637 148.835 164.637 147.498C164.637 147.277 164.559 146.898 164.859 146.855C166.929 146.275 168.847 145.25 170.479 143.852H170.436Z" fill="#099F49" stroke="#099F49" stroke-width="0.09" stroke-miterlimit="10"/>
<path d="M132.347 148.12C132.719 148.009 133.119 148.036 133.472 148.198C133.824 148.36 134.106 148.645 134.264 149C134.907 150.258 134.828 151.738 134.85 153.125C134.85 156.386 134.85 159.668 134.85 162.928C134.886 164.011 134.673 165.087 134.228 166.074C134.108 166.273 133.95 166.446 133.761 166.582C133.573 166.718 133.359 166.814 133.132 166.865C132.906 166.916 132.671 166.92 132.443 166.878C132.214 166.835 131.997 166.747 131.804 166.618C131.405 166.135 131.107 165.578 130.925 164.979C130.743 164.38 130.682 163.751 130.746 163.128C130.746 159.189 130.746 155.263 130.746 151.324C130.824 150.137 131.025 148.535 132.347 148.12Z" fill="#272623" stroke="white" stroke-width="0.09" stroke-miterlimit="10"/>
<path d="M150.802 148.235C151.178 148.03 151.618 147.981 152.03 148.097C152.441 148.213 152.791 148.486 153.004 148.857C153.493 149.873 153.712 150.999 153.64 152.124V162.728C153.64 163.951 153.605 165.273 152.883 166.303C152.645 166.574 152.329 166.766 151.978 166.851C151.628 166.937 151.26 166.913 150.923 166.782C150.588 166.577 150.305 166.296 150.096 165.962C149.888 165.628 149.76 165.251 149.722 164.859C149.236 162.378 149.479 159.854 149.422 157.337C149.458 154.949 149.257 152.546 149.701 150.187C149.744 149.805 149.864 149.436 150.054 149.102C150.243 148.768 150.497 148.476 150.802 148.242V148.235Z" fill="#272623" stroke="#FEFFFF" stroke-width="0.09" stroke-miterlimit="10"/>
<path d="M65.1081 148.457C65.5009 148.343 65.9153 148.326 66.3162 148.407C66.7171 148.488 67.0924 148.664 67.4104 148.921C68.1113 149.92 68.4995 151.105 68.5258 152.325C68.6259 155.528 68.6116 158.76 68.5258 161.927C68.4686 163.314 68.39 164.873 67.4247 165.953C67.2184 166.167 66.9698 166.336 66.6948 166.448C66.4198 166.561 66.1244 166.616 65.8272 166.608C65.5301 166.601 65.2377 166.532 64.9687 166.405C64.6996 166.279 64.4598 166.098 64.2643 165.874C63.2991 164.716 63.2991 163.129 63.1418 161.727C63.0846 158.924 63.0846 156.124 63.1418 153.326C63.1948 152.206 63.382 151.097 63.6995 150.022C63.8005 149.675 63.9773 149.354 64.2171 149.084C64.457 148.813 64.754 148.599 65.0866 148.457H65.1081Z" fill="#272623" stroke="white" stroke-width="0.09" stroke-miterlimit="10"/>
<path d="M113.207 152.839C113.419 152.357 113.675 151.895 113.972 151.459C114.072 154.32 113.972 157.144 114.029 159.99C112.599 160.09 111.169 160.047 109.703 159.99C110.768 157.551 112.084 155.228 113.207 152.839Z" fill="#272623" stroke="#FBFDFC" stroke-width="0.09" stroke-miterlimit="10"/>
<path d="M62.019 177.486C62.6511 177.251 63.3301 177.17 63.9996 177.25H140.506C142.93 177.25 145.353 177.193 147.792 177.293C147.217 177.769 146.594 178.184 145.933 178.53C144.321 179.457 142.663 180.3 140.963 181.054C132.874 184.933 124.206 187.468 115.302 188.561C110.114 189.15 104.886 189.31 99.6715 189.04C90.0481 188.452 80.5993 186.202 71.7432 182.391C68.3836 181.006 65.1371 179.361 62.0333 177.472L62.019 177.486Z" fill="#099F49" stroke="#099F49" stroke-width="0.09" stroke-miterlimit="10"/>
</svg>
