<svg xmlns="http://www.w3.org/2000/svg" viewBox="0 0 150.79 43.18"><defs><style>.cls-1,.cls-2{fill:#f4ebd0;}.cls-2{font-size:11.3px;font-family:Poppins-Regular, Poppins;}</style></defs><g id="Layer_2" data-name="Layer 2"><g id="Layer_1-2" data-name="Layer 1"><path class="cls-1" d="M60.35,19.51a17.52,17.52,0,0,0-7.88,1.85,17.34,17.34,0,0,1,2.85,2.83,16.92,16.92,0,0,1,1.34,1.92,11.55,11.55,0,0,1,3.69-.6A11.69,11.69,0,0,1,72,37.19v0h6v0A17.7,17.7,0,0,0,60.35,19.51Z"/><path class="cls-1" d="M57.25,37.22h-6a11.68,11.68,0,0,0-23.35,0h-6A17.68,17.68,0,0,1,48.4,21.91a15.55,15.55,0,0,1,1.53,1,17.2,17.2,0,0,1,3.44,3.27c.28.36.56.72.81,1.1A17.5,17.5,0,0,1,57.25,37.22Z"/><path class="cls-1" d="M6,19.51A11.69,11.69,0,0,0,17.68,31.19v6a17.68,17.68,0,1,1,0-35.35h49v6h-49A11.69,11.69,0,0,0,6,19.51Z"/><rect class="cls-1" x="66.71" y="7.87" width="6" height="5.32"/><text class="cls-2" transform="translate(84.56 9.59)">Jockey’s<tspan x="0" y="13.56">Conference</tspan><tspan x="0" y="27.12">Center</tspan></text></g></g></svg>