<svg xmlns="http://www.w3.org/2000/svg" viewBox="0 0 159.32 43.18"><defs><style>.cls-1{font-size:11.3px;font-family:Poppins-Regular, Poppins;}.cls-1,.cls-2,.cls-3{fill:#f4ebd0;}.cls-2{stroke:#f4ebd0;stroke-miterlimit:10;stroke-width:2px;}</style></defs><g id="Layer_2" data-name="Layer 2"><g id="Layer_1-2" data-name="Layer 1"><text class="cls-1" transform="translate(93.09 9.59)">Jockey’s<tspan x="0" y="13.56">Conference</tspan><tspan x="0" y="27.12">Center</tspan></text><path class="cls-2" d="M46.12,36.69H41a10,10,0,0,0-6.66-9.4A9.75,9.75,0,0,0,31,26.72a10,10,0,0,0-10,10H15.94A15.11,15.11,0,0,1,31,21.6a14.87,14.87,0,0,1,7.53,2,11.37,11.37,0,0,1,1.31.86,14.67,14.67,0,0,1,2.94,2.79c.24.31.48.61.69.94A14.89,14.89,0,0,1,46.12,36.69Z"/><path class="cls-2" d="M80.86,36.69H75.74a10,10,0,0,0-6.66-9.4,9.74,9.74,0,0,0-3.3-.57,10,10,0,0,0-10,10H50.68A15.09,15.09,0,0,1,73.31,23.62a12.17,12.17,0,0,1,1.3.86,14.67,14.67,0,0,1,2.94,2.79c.24.31.48.61.69.94A14.89,14.89,0,0,1,80.86,36.69Z"/><rect class="cls-3" x="73.32" y="10.17" width="8.1" height="7"/><path class="cls-3" d="M15.94,23.44h0a7.18,7.18,0,0,1-7.18,7.18H7.84V23.44Z"/><rect class="cls-3" x="8.01" y="1.81" width="65.31" height="8.36"/><path class="cls-3" d="M-10.23,12H18.58a0,0,0,0,1,0,0V14.2a6.19,6.19,0,0,1-6.19,6.19H-4a6.19,6.19,0,0,1-6.19-6.19V12A0,0,0,0,1-10.23,12Z" transform="translate(20.39 12.04) rotate(90)"/></g></g></svg>