<svg xmlns="http://www.w3.org/2000/svg" viewBox="0 0 82.36 36.38"><defs><style>.cls-1,.cls-2{fill:#f4ebd0;}.cls-1{stroke:#f4ebd0;stroke-miterlimit:10;stroke-width:3px;}</style></defs><g id="Layer_2" data-name="Layer 2"><g id="Layer_1-2" data-name="Layer 1"><path class="cls-1" d="M45.8,34.88H40.68A10,10,0,0,0,34,25.48a9.74,9.74,0,0,0-3.3-.57,10,10,0,0,0-10,10H15.62A15.09,15.09,0,0,1,38.25,21.81a12.3,12.3,0,0,1,1.31.86,14.35,14.35,0,0,1,2.93,2.79c.24.31.48.61.69.94A14.89,14.89,0,0,1,45.8,34.88Z"/><path class="cls-1" d="M80.86,34.88H75.74a10,10,0,0,0-6.66-9.4,9.74,9.74,0,0,0-3.3-.57,10,10,0,0,0-10,10H50.68A15.09,15.09,0,0,1,73.31,21.81a12.17,12.17,0,0,1,1.3.86,14.67,14.67,0,0,1,2.94,2.79c.24.31.48.61.69.94A14.89,14.89,0,0,1,80.86,34.88Z"/><rect class="cls-2" x="73.32" y="8.36" width="8.1" height="7"/><path class="cls-2" d="M15.94,21.63h0a7.18,7.18,0,0,1-7.18,7.18H7.84V21.63Z"/><rect class="cls-2" x="8.01" width="65.31" height="8.36"/><path class="cls-2" d="M-10.23,10.23H18.58a0,0,0,0,1,0,0v2.16a6.19,6.19,0,0,1-6.19,6.19H-4a6.19,6.19,0,0,1-6.19-6.19V10.23A0,0,0,0,1-10.23,10.23Z" transform="translate(18.58 10.23) rotate(90)"/></g></g></svg>