<svg width="38" height="32" viewBox="0 0 38 32" fill="none" xmlns="http://www.w3.org/2000/svg">
<path d="M0 28.4903C4.27519 28.8383 8.03137 27.7282 11.471 25.0535C7.85384 24.7467 5.42728 22.9459 4.08254 19.4866C5.30187 19.6544 6.42449 19.6723 7.53352 19.2831C5.31396 18.6981 3.57638 17.4521 2.40541 15.4253C1.6817 14.1954 1.31329 12.7792 1.34322 11.3421C2.4598 11.8735 3.56656 12.2837 4.79268 12.2262C2.85642 10.7447 1.69527 8.80804 1.44068 6.34465C1.26843 4.66122 1.56759 3.05314 2.42732 1.53984C6.69873 6.68103 12.0875 9.48546 18.6804 9.96167C18.617 9.50565 18.5445 9.12811 18.5135 8.74667C18.2007 4.87019 20.6288 1.28115 24.289 0.299984C27.1213 -0.458998 29.6385 0.233175 31.7885 2.27862C31.9918 2.47206 32.1557 2.5513 32.4458 2.48371C33.8931 2.14537 35.2891 1.60677 36.5956 0.882622C36.7044 0.822804 36.8147 0.767648 36.9967 0.672095C36.6946 1.62451 36.2858 2.43632 35.6898 3.11529C35.0937 3.79425 34.4229 4.38932 33.7694 5.03644C35.2048 4.89427 36.588 4.45768 38 3.96205C37.5852 4.49031 37.2098 5.05741 36.7489 5.53751C36.0358 6.28095 35.2735 6.98012 34.5067 7.66763C34.2748 7.87582 34.1781 8.06538 34.1796 8.38311C34.2136 15.7399 31.5725 21.891 26.2026 26.7494C23.2639 29.4078 19.7902 30.97 15.9351 31.6505C13.8003 32.0271 11.6254 32.1003 9.47129 31.8681C6.18355 31.5252 3.01383 30.422 0.199443 28.641C0.158648 28.6162 0.122386 28.5835 0 28.4903Z" fill="white"/>
</svg>
